<?xml version="1.0" encoding="UTF-8"?>
<svg width="62px" height="62px" viewBox="0 0 62 62" version="1.1" xmlns="http://www.w3.org/2000/svg" xmlns:xlink="http://www.w3.org/1999/xlink">
    <title>编组 19</title>
    <g id="Landing-Page" stroke="none" stroke-width="1" fill="none" fill-rule="evenodd">
        <g id="靶场分类-已登录" transform="translate(-1356.000000, -573.000000)">
            <g id="编组-17" transform="translate(413.791667, 554.305104)">
                <g id="编组-24" transform="translate(943.043393, 19.583347)">
                    <g id="编组-19" transform="translate(0.371105, 0.742211)">
                        <rect id="矩形" fill="#57AAFF" x="0" y="0" width="59.7881359" height="59.7881359" rx="12.7073239"></rect>
                        <g id="日志" transform="translate(15.206557, 14.687511)" fill-rule="nonzero">
                            <rect id="矩形" fill="#000000" opacity="0" x="0" y="0" width="29.3750212" height="29.3750212"></rect>
                            <path d="M2.75390824,19.2456228 C2.20312659,19.2456228 1.65234494,18.6948411 1.65234494,18.1440595 L1.65234494,12.2690552 C1.65234494,11.7182736 2.20312659,11.1674919 2.75390824,11.1674919 C3.30468988,11.1674919 3.85547153,11.7182736 3.85547153,12.2690552 L3.85547153,18.1440595 C3.85547153,18.878435 3.48828377,19.2456228 2.75390824,19.2456228 Z M29.1914273,15.2065573 C29.1914273,13.7378063 28.2734579,12.636243 26.9883007,12.2690552 L26.9883007,5.10889382 C26.9883007,2.72217334 25.1523619,0.886234521 22.7656414,0.886234521 L5.87500424,0.886234521 C3.48828377,0.886234521 1.65234494,2.72217334 1.65234494,5.10889382 L1.65234494,5.65967546 C1.65234494,6.21045711 2.20312659,6.76123876 2.75390824,6.76123876 C3.30468988,6.76123876 3.85547153,6.21045711 3.85547153,5.65967546 L3.85547153,5.10889382 C3.85547153,4.00733052 4.77344094,3.08936111 5.87500424,3.08936111 L22.9492353,3.08936111 C24.0507986,3.08936111 24.968768,4.00733052 24.968768,5.10889382 L24.968768,12.2690552 C23.8672047,12.636243 22.7656414,13.9214002 22.7656414,15.2065573 C22.7656414,16.6753084 23.6836108,17.7768717 24.968768,18.1440595 L24.968768,25.3042209 C24.968768,26.4057842 24.0507986,27.3237536 22.9492353,27.3237536 L5.87500424,27.3237536 C4.77344094,27.3237536 3.85547153,26.4057842 3.85547153,25.3042209 L3.85547153,24.7534392 C3.85547153,24.2026576 3.30468988,23.6518759 2.75390824,23.6518759 C2.20312659,23.6518759 1.65234494,24.2026576 1.65234494,24.7534392 L1.65234494,25.3042209 C1.65234494,27.6909414 3.48828377,29.5268802 5.87500424,29.5268802 L22.9492353,29.5268802 C25.3359558,29.5268802 27.1718946,27.6909414 27.1718946,25.3042209 L27.1718946,18.3276534 C28.4570518,17.7768717 29.1914273,16.6753084 29.1914273,15.2065573 Z M26.0703313,16.6753084 C25.3359558,16.6753084 24.6015802,16.1245268 24.6015802,15.2065573 C24.6015802,14.4721818 25.1523619,13.7378063 26.0703313,13.7378063 C26.9883007,13.7378063 27.5390824,14.2885879 27.5390824,15.2065573 C27.3554885,15.9409329 26.8047068,16.6753084 26.0703313,16.6753084 L26.0703313,16.6753084 Z M18.9101699,10.0659286 L9.91406965,10.0659286 C9.363288,10.0659286 8.81250636,9.69874088 8.81250636,8.96436535 C8.81250636,8.4135837 9.363288,7.86280205 9.91406965,7.86280205 L18.9101699,7.86280205 C19.4609515,7.86280205 20.0117332,8.4135837 20.0117332,8.96436535 C20.0117332,9.69874088 19.4609515,10.0659286 18.9101699,10.0659286 Z M18.9101699,16.3081206 L9.91406965,16.3081206 C9.363288,16.3081206 8.81250636,15.9409329 8.81250636,15.2065573 C8.81250636,14.6557757 9.363288,14.1049941 9.91406965,14.1049941 L18.9101699,14.1049941 C19.4609515,14.1049941 20.0117332,14.6557757 20.0117332,15.2065573 C20.0117332,15.9409329 19.4609515,16.3081206 18.9101699,16.3081206 Z M18.9101699,22.5503126 L9.91406965,22.5503126 C9.363288,22.5503126 8.81250636,21.999531 8.81250636,21.4487494 C8.81250636,20.8979677 9.363288,20.3471861 9.91406965,20.3471861 L18.9101699,20.3471861 C19.4609515,20.3471861 20.0117332,20.8979677 20.0117332,21.4487494 C20.0117332,22.1831249 19.4609515,22.5503126 18.9101699,22.5503126 Z M4.40625318,22.5503126 L1.28515718,22.5503126 C0.73437553,22.5503126 0.183593882,21.999531 0.183593882,21.4487494 C0.183593882,20.8979677 0.73437553,20.3471861 1.28515718,20.3471861 L4.40625318,20.3471861 C4.95703483,20.3471861 5.50781647,20.8979677 5.50781647,21.4487494 C5.50781647,22.1831249 4.95703483,22.5503126 4.40625318,22.5503126 L4.40625318,22.5503126 Z M4.40625318,10.0659286 L1.28515718,10.0659286 C0.550781647,10.0659286 0.183593882,9.69874088 0.183593882,8.96436535 C0.183593882,8.4135837 0.550781647,7.86280205 1.28515718,7.86280205 L4.40625318,7.86280205 C4.95703483,7.86280205 5.50781647,8.4135837 5.50781647,8.96436535 C5.50781647,9.69874088 4.95703483,10.0659286 4.40625318,10.0659286 L4.40625318,10.0659286 Z" id="形状" fill="#FFFFFF"></path>
                        </g>
                    </g>
                </g>
            </g>
        </g>
    </g>
</svg>